# xmcd CD database file
#
# Track frame offsets:
#	150
#	15227
#	25209
#	55685
#	67417
#	87108
#	102927
#	116879
#	131752
#	149024
#	161541
#	175288
#	189575
#	201543
#	216531
#	229889
#	246750
#	259393
#	281364
#	295885
#
# Disc length: 4316 seconds
#
# Revision: 0
# Processed by: cddbd v1.5.2PL0 Copyright (c) Steve Scherf et al.
# Submitted via: CDex 2.01
#
DISCID=3d10da14
DTITLE=Various Artist - Smooth Jazz [CD1of2)
DYEAR=1900
DGENRE=Jazz
TTITLE0=Miles Davis with Gil Evans - Summertime
TTITLE1=Blossom Dearie - Deed I Do
TTITLE2=Horace Silver - Doodlin
TTITLE3=Sarah Vaughan - Nice Work If You Can Get It
TTITLE4=The John Coltrane Quartet - Naima
TTITLE5=Charlie Parker - How Deep Is The Ocean
TTITLE6=Peggy Lee - Black Coffee
TTITLE7=Duke Ellington - Concerto For Cootie
TTITLE8=Carmen McRae - I'm Glad There Is You
TTITLE9=Sonny Stitt - The Good Life
TTITLE10=Chet Baker - That Old Feeling
TTITLE11=Charles Mingus - Body And Soul
TTITLE12=Betty Carter - Social Call
TTITLE13=Lester Young - I Don't Stand A Ghost Of A Chance
TTITLE14=Julie London - Cry Me A River
TTITLE15=Dizzy Gillespie - They Can't Take That Away From Me
TTITLE16=Dinah Washington - Mad About The Boy
TTITLE17=James Moody - Dreams
TTITLE18=Lena Horne - You're My Thrill
TTITLE19=Stan Getz and Charlie Byrd - Samba De Una Nota So
EXTD=
EXTT0=
EXTT1=
EXTT2=
EXTT3=
EXTT4=
EXTT5=
EXTT6=
EXTT7=
EXTT8=
EXTT9=
EXTT10=
EXTT11=
EXTT12=
EXTT13=
EXTT14=
EXTT15=
EXTT16=
EXTT17=
EXTT18=
EXTT19=
PLAYORDER=
